<?xml version="1.0" encoding="UTF-8"?><svg id="Camada_1" xmlns="http://www.w3.org/2000/svg" viewBox="0 0 855.67 189.94"><g><path d="M107.97,107.97H0V0H107.97V107.97ZM26,81.97h55.97V26H26v55.97Z" style="fill:#3386ff;"/><path d="M189.94,189.94H81.97V81.97h107.97v107.97Zm-81.97-26h55.97v-55.97h-55.97v55.97Z" style="fill:#3386ff;"/></g><g><path d="M216.83,149.16V42.66h29.25v106.5h-29.25Z" style="fill:#2974ce;"/><path d="M293.63,96.81v52.35h-29.25V42.66h22.8l42.75,54.15V42.66h29.25v106.5h-23.25l-42.3-52.35Z" style="fill:#2974ce;"/><path d="M377.48,149.16V42.66h73.05v25.5h-43.8v17.7h35.7v23.7h-35.7v39.6h-29.25Z" style="fill:#2974ce;"/><path d="M461.93,149.16V42.66h29.25v106.5h-29.25Z" style="fill:#2974ce;"/><path d="M538.73,96.81v52.35h-29.25V42.66h22.8l42.75,54.15V42.66h29.25v106.5h-23.25l-42.3-52.35Z" style="fill:#2974ce;"/><path d="M622.58,149.16V42.66h29.25v106.5h-29.25Z" style="fill:#2974ce;"/><path d="M753.07,68.16h-30.6v81h-29.25V68.16h-30.75v-25.5h90.6v25.5Z" style="fill:#2974ce;"/><path d="M785.32,42.66l19.05,43.5,19.5-43.5h31.8l-36.75,71.25v35.25h-29.1v-35.55l-36.15-70.95h31.65Z" style="fill:#2974ce;"/></g></svg>