<?xml version="1.0" encoding="UTF-8"?><svg id="Camada_1" xmlns="http://www.w3.org/2000/svg" viewBox="0 0 744.45 189.94"><path d="M105.61,148.22V41.72h29.25v106.5h-29.25Z" style="fill:#3386ff;"/><path d="M182.41,95.87v52.35h-29.25V41.72h22.8l42.75,54.15V41.72h29.25v106.5h-23.25l-42.3-52.35Z" style="fill:#3386ff;"/><path d="M266.26,148.22V41.72h73.05v25.5h-43.8v17.7h35.7v23.7h-35.7v39.6h-29.25Z" style="fill:#3386ff;"/><path d="M350.71,148.22V41.72h29.25v106.5h-29.25Z" style="fill:#3386ff;"/><path d="M427.51,95.87v52.35h-29.25V41.72h22.8l42.75,54.15V41.72h29.25v106.5h-23.25l-42.3-52.35Z" style="fill:#3386ff;"/><path d="M511.36,148.22V41.72h29.25v106.5h-29.25Z" style="fill:#3386ff;"/><path d="M641.85,67.22h-30.6v81h-29.25V67.22h-30.75v-25.5h90.6v25.5Z" style="fill:#3386ff;"/><path d="M674.1,41.72l19.05,43.5,19.5-43.5h31.8l-36.75,71.25v35.25h-29.1v-35.55l-36.15-70.95h31.65Z" style="fill:#3386ff;"/></svg>